<svg width="60" height="60" viewBox="0 0 60 60" fill="none" xmlns="http://www.w3.org/2000/svg">
<g clip-path="url(#clip0_2_4)">
<path d="M15.115 29.1917C18.3831 23.6873 24.3881 20 31.25 20C41.6053 20 50 28.3948 50 38.75C50 40.1307 51.1193 41.25 52.5 41.25C53.8808 41.25 55 40.1307 55 38.75C55 25.6333 44.3668 15 31.25 15C23.2966 15 16.2597 18.9084 11.95 24.907L10.6076 17.2938C10.3678 15.934 9.07118 15.0261 7.71145 15.2659C6.3517 15.5056 5.44378 16.8023 5.68355 18.162L8.28828 32.934C8.4034 33.587 8.7732 34.1675 9.31635 34.548C10.026 35.0447 10.9694 35.1355 11.7557 34.8612L25.9565 32.3572C27.3163 32.1175 28.2243 30.821 27.9845 29.4613C27.7448 28.1015 26.448 27.1935 25.0883 27.4332L15.115 29.1917Z" fill="white"/>
</g>
<defs>
<clipPath id="clip0_2_4">
<rect width="60" height="60" fill="white"/>
</clipPath>
</defs>
</svg>
